<svg width="32" height="36" viewBox="0 0 32 36" fill="none" xmlns="http://www.w3.org/2000/svg">
<path d="M1 23.1363L9.86364 14.9545H31V26.5454L22.1364 34.7273H1V23.1363Z" fill="white"/>
<path d="M1 23.1363L9.86364 14.9545H31M1 23.1363H22.1364M1 23.1363V34.7273H22.1364M22.1364 23.1363L31 14.9545M22.1364 23.1363V34.7273M31 14.9545V26.5454L22.1364 34.7273" stroke="black"/>
<path d="M17.944 9.168C17.568 9.168 17.26 9.092 17.02 8.94C16.78 8.78 16.604 8.572 16.492 8.316C16.38 8.052 16.324 7.772 16.324 7.476C16.324 6.972 16.432 6.484 16.648 6.012C16.864 5.54 17.144 5.12 17.488 4.752C17.84 4.384 18.22 4.092 18.628 3.876C19.036 3.66 19.436 3.552 19.828 3.552C20.196 3.552 20.472 3.672 20.656 3.912C20.848 4.152 20.96 4.46 20.992 4.836L21.4 3.72H22.192L20.692 7.98C20.66 8.1 20.632 8.208 20.608 8.304C20.584 8.392 20.572 8.468 20.572 8.532C20.572 8.692 20.636 8.772 20.764 8.772C20.94 8.772 21.112 8.68 21.28 8.496C21.448 8.312 21.584 8.132 21.688 7.956L21.904 8.1C21.752 8.348 21.556 8.588 21.316 8.82C21.076 9.052 20.784 9.168 20.44 9.168C20.192 9.168 20.016 9.108 19.912 8.988C19.816 8.868 19.768 8.708 19.768 8.508C19.768 8.356 19.792 8.184 19.84 7.992C19.576 8.36 19.284 8.648 18.964 8.856C18.644 9.064 18.304 9.168 17.944 9.168ZM18.064 8.856C18.52 8.856 18.948 8.64 19.348 8.208C19.748 7.768 20.092 7.192 20.38 6.48L20.524 6.072C20.66 5.672 20.728 5.304 20.728 4.968C20.728 4.64 20.66 4.376 20.524 4.176C20.388 3.968 20.18 3.864 19.9 3.864C19.58 3.864 19.26 3.988 18.94 4.236C18.628 4.476 18.34 4.792 18.076 5.184C17.82 5.576 17.612 5.996 17.452 6.444C17.3 6.884 17.224 7.308 17.224 7.716C17.224 8.092 17.3 8.376 17.452 8.568C17.604 8.76 17.808 8.856 18.064 8.856Z" fill="black"/>
</svg>
